<mxfile host="app.diagrams.net" modified="2021-09-02T06:04:59.629Z" agent="5.0 (Windows NT 10.0; Win64; x64) AppleWebKit/537.36 (KHTML, like Gecko) Chrome/93.0.4577.63 Safari/537.36" etag="1ubK1W6swFy3eiSfNHTO" version="15.0.4" type="github">
  <diagram id="4274GvosK19GFTT_YVtI" name="Page-1">
    <mxGraphModel dx="1220" dy="2212" grid="1" gridSize="10" guides="1" tooltips="1" connect="1" arrows="1" fold="1" page="1" pageScale="1" pageWidth="850" pageHeight="1100" math="0" shadow="0">
      <root>
        <mxCell id="0" />
        <mxCell id="1" parent="0" />
        <mxCell id="L0VZ7dG4dUCvKyCVuoiu-1" value="ACode" style="swimlane;fontStyle=1;align=center;verticalAlign=top;childLayout=stackLayout;horizontal=1;startSize=26;horizontalStack=0;resizeParent=1;resizeParentMax=0;resizeLast=0;collapsible=1;marginBottom=0;" parent="1" vertex="1">
          <mxGeometry x="280" y="-100" width="160" height="120" as="geometry" />
        </mxCell>
        <mxCell id="L0VZ7dG4dUCvKyCVuoiu-2" value="byteSize: int" style="text;strokeColor=none;fillColor=none;align=left;verticalAlign=top;spacingLeft=4;spacingRight=4;overflow=hidden;rotatable=0;points=[[0,0.5],[1,0.5]];portConstraint=eastwest;" parent="L0VZ7dG4dUCvKyCVuoiu-1" vertex="1">
          <mxGeometry y="26" width="160" height="26" as="geometry" />
        </mxCell>
        <mxCell id="L0VZ7dG4dUCvKyCVuoiu-3" value="" style="line;strokeWidth=1;fillColor=none;align=left;verticalAlign=middle;spacingTop=-1;spacingLeft=3;spacingRight=3;rotatable=0;labelPosition=right;points=[];portConstraint=eastwest;" parent="L0VZ7dG4dUCvKyCVuoiu-1" vertex="1">
          <mxGeometry y="52" width="160" height="8" as="geometry" />
        </mxCell>
        <mxCell id="L0VZ7dG4dUCvKyCVuoiu-4" value="+ generateCode(): String&#xa;+ generateListing(): String&#xa;+ getByteSize(): int" style="text;strokeColor=none;fillColor=none;align=left;verticalAlign=top;spacingLeft=4;spacingRight=4;overflow=hidden;rotatable=0;points=[[0,0.5],[1,0.5]];portConstraint=eastwest;" parent="L0VZ7dG4dUCvKyCVuoiu-1" vertex="1">
          <mxGeometry y="60" width="160" height="60" as="geometry" />
        </mxCell>
        <mxCell id="L0VZ7dG4dUCvKyCVuoiu-5" value="Error" style="swimlane;fontStyle=1;align=center;verticalAlign=top;childLayout=stackLayout;horizontal=1;startSize=26;horizontalStack=0;resizeParent=1;resizeParentMax=0;resizeLast=0;collapsible=1;marginBottom=0;" parent="1" vertex="1">
          <mxGeometry x="80" y="270" width="160" height="86" as="geometry" />
        </mxCell>
        <mxCell id="L0VZ7dG4dUCvKyCVuoiu-6" value="- errorMessage: String" style="text;strokeColor=none;fillColor=none;align=left;verticalAlign=top;spacingLeft=4;spacingRight=4;overflow=hidden;rotatable=0;points=[[0,0.5],[1,0.5]];portConstraint=eastwest;" parent="L0VZ7dG4dUCvKyCVuoiu-5" vertex="1">
          <mxGeometry y="26" width="160" height="26" as="geometry" />
        </mxCell>
        <mxCell id="L0VZ7dG4dUCvKyCVuoiu-7" value="" style="line;strokeWidth=1;fillColor=none;align=left;verticalAlign=middle;spacingTop=-1;spacingLeft=3;spacingRight=3;rotatable=0;labelPosition=right;points=[];portConstraint=eastwest;" parent="L0VZ7dG4dUCvKyCVuoiu-5" vertex="1">
          <mxGeometry y="52" width="160" height="8" as="geometry" />
        </mxCell>
        <mxCell id="L0VZ7dG4dUCvKyCVuoiu-8" value="  " style="text;strokeColor=none;fillColor=none;align=left;verticalAlign=top;spacingLeft=4;spacingRight=4;overflow=hidden;rotatable=0;points=[[0,0.5],[1,0.5]];portConstraint=eastwest;" parent="L0VZ7dG4dUCvKyCVuoiu-5" vertex="1">
          <mxGeometry y="60" width="160" height="26" as="geometry" />
        </mxCell>
        <mxCell id="L0VZ7dG4dUCvKyCVuoiu-10" value="Extends" style="endArrow=block;endSize=16;endFill=0;html=1;exitX=0.456;exitY=0.023;exitDx=0;exitDy=0;exitPerimeter=0;" parent="1" source="L0VZ7dG4dUCvKyCVuoiu-5" target="L0VZ7dG4dUCvKyCVuoiu-4" edge="1">
          <mxGeometry x="-0.7725" width="160" relative="1" as="geometry">
            <mxPoint x="350" y="510" as="sourcePoint" />
            <mxPoint x="510" y="510" as="targetPoint" />
            <Array as="points">
              <mxPoint x="153" y="160" />
              <mxPoint x="360" y="160" />
            </Array>
            <mxPoint as="offset" />
          </mxGeometry>
        </mxCell>
        <mxCell id="L0VZ7dG4dUCvKyCVuoiu-11" value="Extends" style="endArrow=block;endSize=16;endFill=0;html=1;exitX=0.5;exitY=0;exitDx=0;exitDy=0;" parent="1" source="L0VZ7dG4dUCvKyCVuoiu-12" target="L0VZ7dG4dUCvKyCVuoiu-4" edge="1">
          <mxGeometry x="-0.5" width="160" relative="1" as="geometry">
            <mxPoint x="440" y="280" as="sourcePoint" />
            <mxPoint x="370" y="120" as="targetPoint" />
            <Array as="points">
              <mxPoint x="360" y="160" />
            </Array>
            <mxPoint as="offset" />
          </mxGeometry>
        </mxCell>
        <mxCell id="L0VZ7dG4dUCvKyCVuoiu-12" value="EmptyInstr" style="swimlane;fontStyle=1;align=center;verticalAlign=top;childLayout=stackLayout;horizontal=1;startSize=26;horizontalStack=0;resizeParent=1;resizeParentMax=0;resizeLast=0;collapsible=1;marginBottom=0;" parent="1" vertex="1">
          <mxGeometry x="280" y="270" width="160" height="86" as="geometry" />
        </mxCell>
        <mxCell id="L0VZ7dG4dUCvKyCVuoiu-13" value=" " style="text;strokeColor=none;fillColor=none;align=left;verticalAlign=top;spacingLeft=4;spacingRight=4;overflow=hidden;rotatable=0;points=[[0,0.5],[1,0.5]];portConstraint=eastwest;" parent="L0VZ7dG4dUCvKyCVuoiu-12" vertex="1">
          <mxGeometry y="26" width="160" height="26" as="geometry" />
        </mxCell>
        <mxCell id="L0VZ7dG4dUCvKyCVuoiu-14" value="" style="line;strokeWidth=1;fillColor=none;align=left;verticalAlign=middle;spacingTop=-1;spacingLeft=3;spacingRight=3;rotatable=0;labelPosition=right;points=[];portConstraint=eastwest;" parent="L0VZ7dG4dUCvKyCVuoiu-12" vertex="1">
          <mxGeometry y="52" width="160" height="8" as="geometry" />
        </mxCell>
        <mxCell id="L0VZ7dG4dUCvKyCVuoiu-15" value="  " style="text;strokeColor=none;fillColor=none;align=left;verticalAlign=top;spacingLeft=4;spacingRight=4;overflow=hidden;rotatable=0;points=[[0,0.5],[1,0.5]];portConstraint=eastwest;" parent="L0VZ7dG4dUCvKyCVuoiu-12" vertex="1">
          <mxGeometry y="60" width="160" height="26" as="geometry" />
        </mxCell>
        <mxCell id="L0VZ7dG4dUCvKyCVuoiu-16" value="Extends" style="endArrow=block;endSize=16;endFill=0;html=1;exitX=0.5;exitY=0;exitDx=0;exitDy=0;" parent="1" source="L0VZ7dG4dUCvKyCVuoiu-17" target="L0VZ7dG4dUCvKyCVuoiu-4" edge="1">
          <mxGeometry x="-0.7778" width="160" relative="1" as="geometry">
            <mxPoint x="640" y="280" as="sourcePoint" />
            <mxPoint x="560" y="110" as="targetPoint" />
            <Array as="points">
              <mxPoint x="560" y="160" />
              <mxPoint x="360" y="160" />
            </Array>
            <mxPoint as="offset" />
          </mxGeometry>
        </mxCell>
        <mxCell id="L0VZ7dG4dUCvKyCVuoiu-17" value="UnaryInstr" style="swimlane;fontStyle=1;align=center;verticalAlign=top;childLayout=stackLayout;horizontal=1;startSize=26;horizontalStack=0;resizeParent=1;resizeParentMax=0;resizeLast=0;collapsible=1;marginBottom=0;" parent="1" vertex="1">
          <mxGeometry x="480" y="270" width="160" height="86" as="geometry" />
        </mxCell>
        <mxCell id="L0VZ7dG4dUCvKyCVuoiu-18" value="- mnemonic: Mnemon" style="text;strokeColor=none;fillColor=none;align=left;verticalAlign=top;spacingLeft=4;spacingRight=4;overflow=hidden;rotatable=0;points=[[0,0.5],[1,0.5]];portConstraint=eastwest;" parent="L0VZ7dG4dUCvKyCVuoiu-17" vertex="1">
          <mxGeometry y="26" width="160" height="26" as="geometry" />
        </mxCell>
        <mxCell id="L0VZ7dG4dUCvKyCVuoiu-19" value="" style="line;strokeWidth=1;fillColor=none;align=left;verticalAlign=middle;spacingTop=-1;spacingLeft=3;spacingRight=3;rotatable=0;labelPosition=right;points=[];portConstraint=eastwest;" parent="L0VZ7dG4dUCvKyCVuoiu-17" vertex="1">
          <mxGeometry y="52" width="160" height="8" as="geometry" />
        </mxCell>
        <mxCell id="L0VZ7dG4dUCvKyCVuoiu-20" value="  " style="text;strokeColor=none;fillColor=none;align=left;verticalAlign=top;spacingLeft=4;spacingRight=4;overflow=hidden;rotatable=0;points=[[0,0.5],[1,0.5]];portConstraint=eastwest;" parent="L0VZ7dG4dUCvKyCVuoiu-17" vertex="1">
          <mxGeometry y="60" width="160" height="26" as="geometry" />
        </mxCell>
        <mxCell id="L0VZ7dG4dUCvKyCVuoiu-26" value="NonUnaryAddrInstr" style="swimlane;fontStyle=1;align=center;verticalAlign=top;childLayout=stackLayout;horizontal=1;startSize=26;horizontalStack=0;resizeParent=1;resizeParentMax=0;resizeLast=0;collapsible=1;marginBottom=0;" parent="1" vertex="1">
          <mxGeometry x="760" y="261" width="160" height="104" as="geometry" />
        </mxCell>
        <mxCell id="L0VZ7dG4dUCvKyCVuoiu-27" value="- mnemonic: Mnemon&#xa;- aArg: AArg&#xa;- addr: AddresssMode" style="text;strokeColor=none;fillColor=none;align=left;verticalAlign=top;spacingLeft=4;spacingRight=4;overflow=hidden;rotatable=0;points=[[0,0.5],[1,0.5]];portConstraint=eastwest;" parent="L0VZ7dG4dUCvKyCVuoiu-26" vertex="1">
          <mxGeometry y="26" width="160" height="44" as="geometry" />
        </mxCell>
        <mxCell id="L0VZ7dG4dUCvKyCVuoiu-28" value="" style="line;strokeWidth=1;fillColor=none;align=left;verticalAlign=middle;spacingTop=-1;spacingLeft=3;spacingRight=3;rotatable=0;labelPosition=right;points=[];portConstraint=eastwest;" parent="L0VZ7dG4dUCvKyCVuoiu-26" vertex="1">
          <mxGeometry y="70" width="160" height="8" as="geometry" />
        </mxCell>
        <mxCell id="L0VZ7dG4dUCvKyCVuoiu-29" value="  " style="text;strokeColor=none;fillColor=none;align=left;verticalAlign=top;spacingLeft=4;spacingRight=4;overflow=hidden;rotatable=0;points=[[0,0.5],[1,0.5]];portConstraint=eastwest;" parent="L0VZ7dG4dUCvKyCVuoiu-26" vertex="1">
          <mxGeometry y="78" width="160" height="26" as="geometry" />
        </mxCell>
        <mxCell id="L0VZ7dG4dUCvKyCVuoiu-30" value="Extends" style="endArrow=block;endSize=16;endFill=0;html=1;" parent="1" source="L0VZ7dG4dUCvKyCVuoiu-26" target="L0VZ7dG4dUCvKyCVuoiu-4" edge="1">
          <mxGeometry x="-0.8701" width="160" relative="1" as="geometry">
            <mxPoint x="770" y="280" as="sourcePoint" />
            <mxPoint x="370" y="120" as="targetPoint" />
            <Array as="points">
              <mxPoint x="840" y="160" />
              <mxPoint x="360" y="160" />
            </Array>
            <mxPoint as="offset" />
          </mxGeometry>
        </mxCell>
        <mxCell id="L0VZ7dG4dUCvKyCVuoiu-31" value="DotCommandInstr" style="swimlane;fontStyle=1;align=center;verticalAlign=top;childLayout=stackLayout;horizontal=1;startSize=26;horizontalStack=0;resizeParent=1;resizeParentMax=0;resizeLast=0;collapsible=1;marginBottom=0;" parent="1" vertex="1">
          <mxGeometry x="1080" y="270" width="160" height="86" as="geometry" />
        </mxCell>
        <mxCell id="L0VZ7dG4dUCvKyCVuoiu-32" value="- mnemonic: Mnemon" style="text;strokeColor=none;fillColor=none;align=left;verticalAlign=top;spacingLeft=4;spacingRight=4;overflow=hidden;rotatable=0;points=[[0,0.5],[1,0.5]];portConstraint=eastwest;" parent="L0VZ7dG4dUCvKyCVuoiu-31" vertex="1">
          <mxGeometry y="26" width="160" height="26" as="geometry" />
        </mxCell>
        <mxCell id="L0VZ7dG4dUCvKyCVuoiu-33" value="" style="line;strokeWidth=1;fillColor=none;align=left;verticalAlign=middle;spacingTop=-1;spacingLeft=3;spacingRight=3;rotatable=0;labelPosition=right;points=[];portConstraint=eastwest;" parent="L0VZ7dG4dUCvKyCVuoiu-31" vertex="1">
          <mxGeometry y="52" width="160" height="8" as="geometry" />
        </mxCell>
        <mxCell id="L0VZ7dG4dUCvKyCVuoiu-34" value="  " style="text;strokeColor=none;fillColor=none;align=left;verticalAlign=top;spacingLeft=4;spacingRight=4;overflow=hidden;rotatable=0;points=[[0,0.5],[1,0.5]];portConstraint=eastwest;" parent="L0VZ7dG4dUCvKyCVuoiu-31" vertex="1">
          <mxGeometry y="60" width="160" height="26" as="geometry" />
        </mxCell>
        <mxCell id="L0VZ7dG4dUCvKyCVuoiu-35" value="Extends" style="endArrow=block;endSize=16;endFill=0;html=1;" parent="1" source="L0VZ7dG4dUCvKyCVuoiu-31" target="L0VZ7dG4dUCvKyCVuoiu-4" edge="1">
          <mxGeometry x="-0.8701" width="160" relative="1" as="geometry">
            <mxPoint x="970" y="280" as="sourcePoint" />
            <mxPoint x="560" y="110" as="targetPoint" />
            <Array as="points">
              <mxPoint x="1160" y="160" />
              <mxPoint x="360" y="160" />
            </Array>
            <mxPoint as="offset" />
          </mxGeometry>
        </mxCell>
        <mxCell id="L0VZ7dG4dUCvKyCVuoiu-37" value="AArg" style="swimlane;fontStyle=1;align=center;verticalAlign=top;childLayout=stackLayout;horizontal=1;startSize=26;horizontalStack=0;resizeParent=1;resizeParentMax=0;resizeLast=0;collapsible=1;marginBottom=0;" parent="1" vertex="1">
          <mxGeometry x="760" y="590" width="160" height="86" as="geometry" />
        </mxCell>
        <mxCell id="L0VZ7dG4dUCvKyCVuoiu-38" value="+ field: type" style="text;strokeColor=none;fillColor=none;align=left;verticalAlign=top;spacingLeft=4;spacingRight=4;overflow=hidden;rotatable=0;points=[[0,0.5],[1,0.5]];portConstraint=eastwest;" parent="L0VZ7dG4dUCvKyCVuoiu-37" vertex="1">
          <mxGeometry y="26" width="160" height="26" as="geometry" />
        </mxCell>
        <mxCell id="L0VZ7dG4dUCvKyCVuoiu-39" value="" style="line;strokeWidth=1;fillColor=none;align=left;verticalAlign=middle;spacingTop=-1;spacingLeft=3;spacingRight=3;rotatable=0;labelPosition=right;points=[];portConstraint=eastwest;" parent="L0VZ7dG4dUCvKyCVuoiu-37" vertex="1">
          <mxGeometry y="52" width="160" height="8" as="geometry" />
        </mxCell>
        <mxCell id="L0VZ7dG4dUCvKyCVuoiu-40" value="+ generateListing(): String" style="text;strokeColor=none;fillColor=none;align=left;verticalAlign=top;spacingLeft=4;spacingRight=4;overflow=hidden;rotatable=0;points=[[0,0.5],[1,0.5]];portConstraint=eastwest;" parent="L0VZ7dG4dUCvKyCVuoiu-37" vertex="1">
          <mxGeometry y="60" width="160" height="26" as="geometry" />
        </mxCell>
        <mxCell id="L0VZ7dG4dUCvKyCVuoiu-42" value="IdentifierArg" style="swimlane;fontStyle=1;align=center;verticalAlign=top;childLayout=stackLayout;horizontal=1;startSize=26;horizontalStack=0;resizeParent=1;resizeParentMax=0;resizeLast=0;collapsible=1;marginBottom=0;" parent="1" vertex="1">
          <mxGeometry x="560" y="800" width="160" height="100" as="geometry" />
        </mxCell>
        <mxCell id="L0VZ7dG4dUCvKyCVuoiu-43" value="- stringValue: String" style="text;strokeColor=none;fillColor=none;align=left;verticalAlign=top;spacingLeft=4;spacingRight=4;overflow=hidden;rotatable=0;points=[[0,0.5],[1,0.5]];portConstraint=eastwest;" parent="L0VZ7dG4dUCvKyCVuoiu-42" vertex="1">
          <mxGeometry y="26" width="160" height="34" as="geometry" />
        </mxCell>
        <mxCell id="L0VZ7dG4dUCvKyCVuoiu-44" value="" style="line;strokeWidth=1;fillColor=none;align=left;verticalAlign=middle;spacingTop=-1;spacingLeft=3;spacingRight=3;rotatable=0;labelPosition=right;points=[];portConstraint=eastwest;" parent="L0VZ7dG4dUCvKyCVuoiu-42" vertex="1">
          <mxGeometry y="60" width="160" height="8" as="geometry" />
        </mxCell>
        <mxCell id="L0VZ7dG4dUCvKyCVuoiu-45" value="+IdentifierArg(str: String)" style="text;strokeColor=none;fillColor=none;align=left;verticalAlign=top;spacingLeft=4;spacingRight=4;overflow=hidden;rotatable=0;points=[[0,0.5],[1,0.5]];portConstraint=eastwest;" parent="L0VZ7dG4dUCvKyCVuoiu-42" vertex="1">
          <mxGeometry y="68" width="160" height="32" as="geometry" />
        </mxCell>
        <mxCell id="L0VZ7dG4dUCvKyCVuoiu-47" value="Extends" style="endArrow=block;endSize=16;endFill=0;html=1;" parent="1" source="L0VZ7dG4dUCvKyCVuoiu-42" target="L0VZ7dG4dUCvKyCVuoiu-40" edge="1">
          <mxGeometry x="-0.7253" width="160" relative="1" as="geometry">
            <mxPoint x="660" y="780" as="sourcePoint" />
            <mxPoint x="840" y="690" as="targetPoint" />
            <Array as="points">
              <mxPoint x="640" y="720" />
              <mxPoint x="840" y="720" />
            </Array>
            <mxPoint as="offset" />
          </mxGeometry>
        </mxCell>
        <mxCell id="L0VZ7dG4dUCvKyCVuoiu-48" value="IntArg" style="swimlane;fontStyle=1;align=center;verticalAlign=top;childLayout=stackLayout;horizontal=1;startSize=26;horizontalStack=0;resizeParent=1;resizeParentMax=0;resizeLast=0;collapsible=1;marginBottom=0;" parent="1" vertex="1">
          <mxGeometry x="760" y="800" width="160" height="86" as="geometry" />
        </mxCell>
        <mxCell id="L0VZ7dG4dUCvKyCVuoiu-49" value="- intValue: int        " style="text;strokeColor=none;fillColor=none;align=left;verticalAlign=top;spacingLeft=4;spacingRight=4;overflow=hidden;rotatable=0;points=[[0,0.5],[1,0.5]];portConstraint=eastwest;" parent="L0VZ7dG4dUCvKyCVuoiu-48" vertex="1">
          <mxGeometry y="26" width="160" height="26" as="geometry" />
        </mxCell>
        <mxCell id="L0VZ7dG4dUCvKyCVuoiu-50" value="" style="line;strokeWidth=1;fillColor=none;align=left;verticalAlign=middle;spacingTop=-1;spacingLeft=3;spacingRight=3;rotatable=0;labelPosition=right;points=[];portConstraint=eastwest;" parent="L0VZ7dG4dUCvKyCVuoiu-48" vertex="1">
          <mxGeometry y="52" width="160" height="8" as="geometry" />
        </mxCell>
        <mxCell id="L0VZ7dG4dUCvKyCVuoiu-51" value="+ IntArg(i: int)" style="text;strokeColor=none;fillColor=none;align=left;verticalAlign=top;spacingLeft=4;spacingRight=4;overflow=hidden;rotatable=0;points=[[0,0.5],[1,0.5]];portConstraint=eastwest;" parent="L0VZ7dG4dUCvKyCVuoiu-48" vertex="1">
          <mxGeometry y="60" width="160" height="26" as="geometry" />
        </mxCell>
        <mxCell id="L0VZ7dG4dUCvKyCVuoiu-52" value="Extends" style="endArrow=block;endSize=16;endFill=0;html=1;" parent="1" source="L0VZ7dG4dUCvKyCVuoiu-48" target="L0VZ7dG4dUCvKyCVuoiu-40" edge="1">
          <mxGeometry x="-0.3902" width="160" relative="1" as="geometry">
            <mxPoint x="600" y="830" as="sourcePoint" />
            <mxPoint x="810" y="696" as="targetPoint" />
            <Array as="points">
              <mxPoint x="840" y="720" />
            </Array>
            <mxPoint as="offset" />
          </mxGeometry>
        </mxCell>
        <mxCell id="L0VZ7dG4dUCvKyCVuoiu-54" value="HexArg" style="swimlane;fontStyle=1;align=center;verticalAlign=top;childLayout=stackLayout;horizontal=1;startSize=26;horizontalStack=0;resizeParent=1;resizeParentMax=0;resizeLast=0;collapsible=1;marginBottom=0;" parent="1" vertex="1">
          <mxGeometry x="960" y="800" width="160" height="108" as="geometry" />
        </mxCell>
        <mxCell id="L0VZ7dG4dUCvKyCVuoiu-55" value="- intValue: int        &#xa;- hexStr: String" style="text;strokeColor=none;fillColor=none;align=left;verticalAlign=top;spacingLeft=4;spacingRight=4;overflow=hidden;rotatable=0;points=[[0,0.5],[1,0.5]];portConstraint=eastwest;" parent="L0VZ7dG4dUCvKyCVuoiu-54" vertex="1">
          <mxGeometry y="26" width="160" height="34" as="geometry" />
        </mxCell>
        <mxCell id="L0VZ7dG4dUCvKyCVuoiu-56" value="" style="line;strokeWidth=1;fillColor=none;align=left;verticalAlign=middle;spacingTop=-1;spacingLeft=3;spacingRight=3;rotatable=0;labelPosition=right;points=[];portConstraint=eastwest;" parent="L0VZ7dG4dUCvKyCVuoiu-54" vertex="1">
          <mxGeometry y="60" width="160" height="8" as="geometry" />
        </mxCell>
        <mxCell id="L0VZ7dG4dUCvKyCVuoiu-57" value="+ HexArg(i: int) &#xa;+ HexArg(s: String)" style="text;strokeColor=none;fillColor=none;align=left;verticalAlign=top;spacingLeft=4;spacingRight=4;overflow=hidden;rotatable=0;points=[[0,0.5],[1,0.5]];portConstraint=eastwest;" parent="L0VZ7dG4dUCvKyCVuoiu-54" vertex="1">
          <mxGeometry y="68" width="160" height="40" as="geometry" />
        </mxCell>
        <mxCell id="L0VZ7dG4dUCvKyCVuoiu-58" value="Extends" style="endArrow=block;endSize=16;endFill=0;html=1;" parent="1" source="L0VZ7dG4dUCvKyCVuoiu-54" target="L0VZ7dG4dUCvKyCVuoiu-40" edge="1">
          <mxGeometry x="-0.7521" width="160" relative="1" as="geometry">
            <mxPoint x="1110" y="814" as="sourcePoint" />
            <mxPoint x="990.3880597014925" y="650" as="targetPoint" />
            <Array as="points">
              <mxPoint x="1040" y="720" />
              <mxPoint x="840" y="720" />
            </Array>
            <mxPoint as="offset" />
          </mxGeometry>
        </mxCell>
        <mxCell id="k3H9gu-8qHTVDdp7gSms-1" value="1" style="endArrow=open;html=1;endSize=12;startArrow=diamondThin;startSize=14;startFill=1;edgeStyle=orthogonalEdgeStyle;align=left;verticalAlign=bottom;entryX=0.5;entryY=0;entryDx=0;entryDy=0;" edge="1" parent="1" source="L0VZ7dG4dUCvKyCVuoiu-29" target="L0VZ7dG4dUCvKyCVuoiu-37">
          <mxGeometry x="-1" y="3" relative="1" as="geometry">
            <mxPoint x="540" y="480" as="sourcePoint" />
            <mxPoint x="840" y="570" as="targetPoint" />
            <Array as="points">
              <mxPoint x="840" y="570" />
            </Array>
          </mxGeometry>
        </mxCell>
      </root>
    </mxGraphModel>
  </diagram>
</mxfile>
